<svg xmlns="http://www.w3.org/2000/svg" xmlns:xlink="http://www.w3.org/1999/xlink" viewBox="0 0 2719.18 811.14"><defs><style>.cls-1,.cls-3{fill:none;}.cls-2{opacity:0.33;}.cls-3{stroke:#444343;stroke-miterlimit:10;stroke-width:30px;}.cls-4{fill:#444343;}.cls-5{clip-path:url(#clip-path);}</style><clipPath id="clip-path"><path class="cls-1" d="M502.91,634.78A255.07,255.07,0,0,1,166.06,505.36c-57.16-128.53.85-279.67,129.44-336.85a253,253,0,0,1,103.58-22.08A255.56,255.56,0,0,1,632.35,297.94C689.53,426.47,631.44,577.58,502.91,634.78Z"/></clipPath></defs><title>INDECOPI</title><g id="Capa_2" data-name="Capa 2"><g id="Capa_1-2" data-name="Capa 1"><g class="cls-2"><path class="cls-3" d="M971.91,296.73c-10.11-26.11-27.15-40.13-48.39-46.13"/><line class="cls-3" x1="1672.01" y1="301.12" x2="1734.99" y2="301.12"/><polyline class="cls-3" points="1083.55 402.89 1063.16 332.41 1005.24 132.53 922.24 398.22 1063.16 332.41"/><path class="cls-3" d="M969.4,189.89c25.45,11.8,47.54,10.38,67.09,0"/><path class="cls-3" d="M1214.37,396.8c47.35,0,86-38.28,86-85.25s-38.66-85.26-86-85.26-86,38.28-86,85.26,38.56,85.25,86,85.25Z"/><line class="cls-3" x1="1125.48" y1="225.11" x2="1125.48" y2="499.86"/><line class="cls-3" x1="1128.31" y1="311.55" x2="1214.37" y2="311.55"/><line class="cls-3" x1="1340.18" y1="401.38" x2="1340.09" y2="219.49"/><path class="cls-3" d="M1340.09,277.22c26.86-47.35,63.82-61.08,105.08-51"/><path class="cls-3" d="M1639.34,365.65a86.22,86.22,0,0,1-67.55,32.29c-47.54,0-86-38.19-86-85.26s38.48-85.26,86-85.26,86,38.19,86,85.26"/><line class="cls-3" x1="1460.8" y1="312.77" x2="1678.67" y2="312.77"/><path class="cls-3" d="M2000.21,401.29c47.35,0,86-38.48,86-85.45s-38.66-85.26-86-85.26-86.11,38.29-86.11,85.26,38.66,85.45,86.11,85.45Z"/><line class="cls-3" x1="2088.91" y1="402.33" x2="2088.91" y2="127.57"/><line class="cls-3" x1="2086.27" y1="315.79" x2="2000.21" y2="315.89"/><path class="cls-3" d="M2282.89,366.21a86.49,86.49,0,0,1-67.55,32.29c-47.54,0-86-38.19-86-85.25s38.48-85.26,86-85.26,86.11,38.19,86.11,85.26"/><line class="cls-3" x1="2104.35" y1="313.34" x2="2322.31" y2="313.34"/><line class="cls-3" x1="2345.87" y1="402.33" x2="2345.87" y2="220.62"/><path class="cls-3" d="M2345.87,278.26c27-47.35,63.83-61.18,105.09-51"/><line class="cls-3" x1="1698.97" y1="211.7" x2="1698.97" y2="399.07"/><path class="cls-3" d="M1699,305.46c2.36-110.8,170.52-96.69,170.8-6.28v103.2"/><path class="cls-3" d="M1460.14,631.48a86.14,86.14,0,0,1-68.22,33.24c-47.54,0-86-38.19-86-85.26s38.48-85.26,86-85.26a86.34,86.34,0,0,1,70.3,35.93"/><line class="cls-3" x1="1267.43" y1="582.62" x2="1390.32" y2="449.73"/><line class="cls-3" x1="1504.94" y1="671.9" x2="1504.94" y2="490.19"/><path class="cls-3" d="M1504.94,547.74c26.86-47.26,63.83-61.09,105.09-50.9"/><path class="cls-3" d="M1804.15,633.37a86.27,86.27,0,0,1-67.46,32.39c-47.54,0-86-38.19-86-85.26,0-47.26,38.47-85.45,86-85.45s86,38.19,86,85.45"/><line class="cls-3" x1="1625.84" y1="580.5" x2="1843.62" y2="580.5"/><path class="cls-3" d="M2381.61,667.41c47.35,0,86.11-38.29,86.11-85.26s-38.76-85.26-86.11-85.26-86,38.29-86,85.26,38.67,85.26,86,85.26Z"/><line class="cls-3" x1="2470.46" y1="668.54" x2="2470.46" y2="393.69"/><line class="cls-3" x1="2467.81" y1="582.15" x2="2381.61" y2="582.15"/><path class="cls-3" d="M1950.31,665.1c47.35,0,86-38.29,86-85.26s-38.66-85.26-86-85.26-86,38.29-86,85.26,38.66,85.26,86,85.26Z"/><line class="cls-3" x1="2039.02" y1="666.28" x2="2039.02" y2="487.92"/><line class="cls-3" x1="2036.32" y1="579.84" x2="1950.31" y2="579.84"/><path class="cls-3" d="M2598.44,666.75c47.35,0,86-38.29,86-85.26s-38.66-85.26-86-85.26-86.11,38.29-86.11,85.26,38.76,85.26,86.11,85.26Z"/><path class="cls-3" d="M2705.51,503.83a86.48,86.48,0,0,1-154.14,6.23"/><line class="cls-3" x1="2083.2" y1="482.59" x2="2083.2" y2="669.96"/><line class="cls-3" x1="2056.34" y1="669.96" x2="2119.32" y2="669.87"/><path class="cls-3" d="M2083.2,576.25c2.55-110.7,170.52-96.68,170.9-6.28V673.26"/><path class="cls-4" d="M795,331.82a22.43,22.43,0,0,0-27.59-17.91,68.12,68.12,0,0,1-53.8-123.3,22.47,22.47,0,0,0,5.67-32.39,398.14,398.14,0,0,0-87.71-84.79,22.47,22.47,0,0,0-32.17,6.7A68.43,68.43,0,0,1,541,113.05a68.27,68.27,0,0,1-66.9-82.37A22.38,22.38,0,0,0,455.25,3.83,398.74,398.74,0,0,0,333.4,5.62a22.46,22.46,0,0,0-18,27.47,67.75,67.75,0,0,1-2.51,40.75A68.76,68.76,0,0,1,249,117.74a67.79,67.79,0,0,1-57.15-31.33,22.47,22.47,0,0,0-32.34-5.75A396.93,396.93,0,0,0,74.3,168.24a22.49,22.49,0,0,0,6.78,32.27,68.31,68.31,0,0,1-7.37,121,68.51,68.51,0,0,1-42.57,4.19A22.46,22.46,0,0,0,4,344.48,397.38,397.38,0,0,0,5.56,467a22.46,22.46,0,0,0,27.83,18A68,68,0,0,1,86.68,608.67a22.46,22.46,0,0,0-6.1,32.55A396.26,396.26,0,0,0,168.81,727a22.26,22.26,0,0,0,17.78,3.6,22.49,22.49,0,0,0,14.63-10.68,68.28,68.28,0,0,1,125.63,49.75A22.44,22.44,0,0,0,345.59,797a402.66,402.66,0,0,0,55.21,3.86A397.8,397.8,0,0,0,468.62,795a22.44,22.44,0,0,0,17.84-28,67.59,67.59,0,0,1,2-42.14,68.3,68.3,0,0,1,88.35-39.32A67.75,67.75,0,0,1,610,713.29a22.47,22.47,0,0,0,32.59,6,396.64,396.64,0,0,0,85.33-88.39,22.48,22.48,0,0,0-7-32.3,67.54,67.54,0,0,1-27.92-31.1A68.23,68.23,0,0,1,770.12,473a22.47,22.47,0,0,0,27.1-18.89A398.51,398.51,0,0,0,795,331.82ZM504.14,633.57A255.09,255.09,0,0,1,167.29,504.14c-57.15-128.53.86-279.66,129.45-336.84a252.91,252.91,0,0,1,103.57-22.08,255.58,255.58,0,0,1,233.28,151.5C690.77,425.25,632.68,576.36,504.14,633.57Z"/><g class="cls-5"><image width="650" height="651" transform="translate(109.34 47.33) scale(1.17)" xlink:href="../mano.png"/></g></g></g></g></svg>